<?xml version="1.0" encoding="UTF-8"?>
<svg id="_圖層_2" data-name="圖層 2" xmlns="http://www.w3.org/2000/svg" viewBox="0 0 380 229.65">
  <defs>
    <style>
      .cls-1 {
        fill: #000001;
        stroke-width: 0px;
      }
    </style>
  </defs>
  <g id="Layer_1" data-name="Layer 1">
    <path class="cls-1" d="m69.72,229.65C31.25,229.39,0,197.99,0,159.64c0-33.32,22.99-61.18,54.28-68.26-.51-2.8-.76-5.66-.76-8.56,0-26.25,21.36-47.61,47.61-47.61,8.72,0,17.08,2.33,24.37,6.69C145.48,15.47,176.31,0,209.96,0c52.59,0,96.92,38.74,104.78,89.78,36.4,2.45,65.26,32.85,65.26,69.86s-31.1,69.62-69.32,70H69.72Zm31.41-174.44c-15.22,0-27.61,12.39-27.61,27.61,0,4.34.99,8.51,2.93,12.37,1.53,3.04,1.41,6.64-.32,9.57-1.73,2.93-4.82,4.78-8.22,4.91-26.86,1.06-47.9,23.01-47.9,49.96s22.33,49.83,49.78,50.01h240.8c27.2-.27,49.42-22.7,49.42-50.01s-22.44-50.02-50.02-50.02c-1.03,0-2.15.04-3.52.14-2.65.19-5.27-.7-7.28-2.45-2-1.75-3.23-4.23-3.4-6.89-2.89-45.1-40.6-80.43-85.84-80.43-30.34,0-57.86,15.51-73.61,41.49-1.59,2.63-4.31,4.38-7.37,4.74-3.05.36-6.11-.7-8.27-2.88-5.22-5.25-12.17-8.14-19.58-8.14Z"/>
  </g>
</svg>